# xmcd CD database file
#
# Track frame offsets:
#	150
#	49718
#	114070
#	153771
#
# Disc length: 2338 seconds
#
# Revision: 0
# Processed by: cddbd v1.5.1PL0 Copyright (c) Steve Scherf et al.
# Submitted via: CDex 1.51
#
DISCID=1f092004
DTITLE=Pat Metheny Group - Live at Hofstra Playhouse 2/2
DYEAR=1979
DGENRE=Jazz
TTITLE0=The Magician's Theater
TTITLE1=San Lorenzo > band introduction
TTITLE2=Cross the Heartland > announcer
TTITLE3=American Garage
EXTD=YEAR: 1979
EXTT0=
EXTT1=
EXTT2=
EXTT3=
PLAYORDER=
